<svg id="Layer_1" data-name="Layer 1" xmlns="http://www.w3.org/2000/svg" viewBox="0 0 512 512"><defs><style>.cls-1{fill:#898989;}</style></defs><title>video-film-other</title><path class="cls-1" d="M506.31,489.24H5.69A5.69,5.69,0,0,1,0,483.56V28.44a5.69,5.69,0,0,1,5.69-5.69H506.31A5.69,5.69,0,0,1,512,28.44V483.56A5.69,5.69,0,0,1,506.31,489.24ZM11.38,477.87H500.62V34.13H11.38Z"/><path class="cls-1" d="M142.22,125.16H96.71A5.69,5.69,0,0,1,91,119.47V74a5.69,5.69,0,0,1,5.69-5.69h45.51A5.69,5.69,0,0,1,147.91,74v45.51A5.69,5.69,0,0,1,142.22,125.16ZM102.4,113.78h34.13V79.64H102.4Z"/><path class="cls-1" d="M233.24,125.16H187.73a5.69,5.69,0,0,1-5.69-5.69V74a5.69,5.69,0,0,1,5.69-5.69h45.51A5.69,5.69,0,0,1,238.93,74v45.51A5.69,5.69,0,0,1,233.24,125.16Zm-39.82-11.38h34.13V79.64H193.42Z"/><path class="cls-1" d="M324.27,125.16H278.76a5.69,5.69,0,0,1-5.69-5.69V74a5.69,5.69,0,0,1,5.69-5.69h45.51A5.69,5.69,0,0,1,330,74v45.51A5.69,5.69,0,0,1,324.27,125.16Zm-39.82-11.38h34.13V79.64H284.44Z"/><path class="cls-1" d="M415.29,125.16H369.78a5.69,5.69,0,0,1-5.69-5.69V74a5.69,5.69,0,0,1,5.69-5.69h45.51A5.69,5.69,0,0,1,421,74v45.51A5.69,5.69,0,0,1,415.29,125.16Zm-39.82-11.38H409.6V79.64H375.47Z"/><path class="cls-1" d="M142.22,443.73H96.71A5.69,5.69,0,0,1,91,438V392.53a5.69,5.69,0,0,1,5.69-5.69h45.51a5.69,5.69,0,0,1,5.69,5.69V438A5.69,5.69,0,0,1,142.22,443.73ZM102.4,432.36h34.13V398.22H102.4Z"/><path class="cls-1" d="M233.24,443.73H187.73A5.69,5.69,0,0,1,182,438V392.53a5.69,5.69,0,0,1,5.69-5.69h45.51a5.69,5.69,0,0,1,5.69,5.69V438A5.69,5.69,0,0,1,233.24,443.73Zm-39.82-11.38h34.13V398.22H193.42Z"/><path class="cls-1" d="M324.27,443.73H278.76a5.69,5.69,0,0,1-5.69-5.69V392.53a5.69,5.69,0,0,1,5.69-5.69h45.51a5.69,5.69,0,0,1,5.69,5.69V438A5.69,5.69,0,0,1,324.27,443.73Zm-39.82-11.38h34.13V398.22H284.44Z"/><path class="cls-1" d="M415.29,443.73H369.78a5.69,5.69,0,0,1-5.69-5.69V392.53a5.69,5.69,0,0,1,5.69-5.69h45.51a5.69,5.69,0,0,1,5.69,5.69V438A5.69,5.69,0,0,1,415.29,443.73Zm-39.82-11.38H409.6V398.22H375.47Z"/><path class="cls-1" d="M200.43,322.92a19.45,19.45,0,0,1-10.54-3.08,16.52,16.52,0,0,1-7.84-14V206.14a16.52,16.52,0,0,1,7.84-14,19.64,19.64,0,0,1,18.53-1.38l111.17,49.86a16.57,16.57,0,0,1,0,30.73L208.42,321.22A19.59,19.59,0,0,1,200.43,322.92Zm0-122.48a8.23,8.23,0,0,0-4.37,1.26,5.39,5.39,0,0,0-2.65,4.44v99.71a5.39,5.39,0,0,0,2.65,4.44,8.24,8.24,0,0,0,7.69.54L314.93,261c2.32-1,3.65-2.86,3.65-5s-1.33-3.94-3.65-5L203.76,201.16A8.19,8.19,0,0,0,200.44,200.44Z"/></svg>